<?xml version="1.0" standalone="no"?><!DOCTYPE svg PUBLIC "-//W3C//DTD SVG 1.1//EN" "http://www.w3.org/Graphics/SVG/1.1/DTD/svg11.dtd"><svg t="1650640644438" class="icon" viewBox="0 0 1024 1024" version="1.1" xmlns="http://www.w3.org/2000/svg" p-id="1907" xmlns:xlink="http://www.w3.org/1999/xlink" width="200" height="200"><defs><style type="text/css">@font-face { font-family: feedback-iconfont; src: url("//at.alicdn.com/t/font_1031158_u69w8yhxdu.woff2?t=1630033759944") format("woff2"), url("//at.alicdn.com/t/font_1031158_u69w8yhxdu.woff?t=1630033759944") format("woff"), url("//at.alicdn.com/t/font_1031158_u69w8yhxdu.ttf?t=1630033759944") format("truetype"); }
</style></defs><path d="M208.554667 407.893333v402.432c8.192 30.72 35.84 53.248 69.290666 53.248h468.309334c39.594667 0 71.68-32.085333 71.68-71.68V222.549333c0-39.594667-32.085333-71.68-71.68-71.68H277.845333c-33.109333 0-61.098667 22.528-69.290666 53.248v203.776z" fill="#06CC76" opacity=".7" p-id="1908"></path><path d="M201.045333 319.488h70.314667c19.797333 0 35.498667-16.042667 35.498667-35.498667 0-19.797333-16.042667-35.498667-35.498667-35.498666H201.045333c-19.797333 0-35.498667 16.042667-35.498666 35.498666-0.341333 19.797333 15.701333 35.498667 35.498666 35.498667zM271.36 471.722667H201.045333c-19.797333 0-35.498667 16.042667-35.498666 35.498666 0 19.797333 16.042667 35.498667 35.498666 35.498667h70.314667c19.797333 0 35.498667-16.042667 35.498667-35.498667s-16.042667-35.498667-35.498667-35.498666zM271.36 694.954667H201.045333c-19.797333 0-35.498667 16.042667-35.498666 35.498666 0 19.797333 16.042667 35.498667 35.498666 35.498667h70.314667c19.797333 0 35.498667-16.042667 35.498667-35.498667s-16.042667-35.498667-35.498667-35.498666z" fill="#06CC76" opacity=".7" p-id="1909"></path><path d="M723.626667 633.856v-252.928c0-32.768-26.624-59.050667-59.392-58.709333-32.085333 0.341333-58.368 26.624-58.368 58.709333v252.928c0 32.426667 25.941333 58.709333 58.368 58.709333 32.768 0.341333 59.392-25.941333 59.392-58.709333z" fill="#FFFFFF" p-id="1910"></path></svg>