<?xml version="1.0" standalone="no"?><!DOCTYPE svg PUBLIC "-//W3C//DTD SVG 1.1//EN" "http://www.w3.org/Graphics/SVG/1.1/DTD/svg11.dtd"><svg t="1650640862658" class="icon" viewBox="0 0 1024 1024" version="1.1" xmlns="http://www.w3.org/2000/svg" p-id="2378" xmlns:xlink="http://www.w3.org/1999/xlink" width="200" height="200"><defs><style type="text/css">@font-face { font-family: feedback-iconfont; src: url("//at.alicdn.com/t/font_1031158_u69w8yhxdu.woff2?t=1630033759944") format("woff2"), url("//at.alicdn.com/t/font_1031158_u69w8yhxdu.woff?t=1630033759944") format("woff"), url("//at.alicdn.com/t/font_1031158_u69w8yhxdu.ttf?t=1630033759944") format("truetype"); }
</style></defs><path d="M726.698667 178.176h-133.461334c-14.336-28.672-47.786667-47.786667-81.237333-47.786667s-66.901333 19.114667-81.237333 47.786667H297.301333c-66.901333 0-119.125333 52.565333-119.125333 119.125333v476.842667c0 66.901333 52.565333 119.125333 119.125333 119.125333h429.056c66.901333 0 119.125333-52.565333 119.125334-119.125333V297.301333c0.341333-66.56-52.224-119.125333-118.784-119.125333z" fill="#635DF7" opacity=".6" p-id="2379"></path><path d="M664.576 426.325333h-162.133333c-19.114667 0-38.229333 19.114667-38.229334 38.229334s19.114667 38.229333 38.229334 38.229333h162.133333c19.114667 0 38.229333-19.114667 38.229333-38.229333s-19.114667-38.229333-38.229333-38.229334zM664.576 616.789333h-162.133333c-19.114667 0-38.229333 19.114667-38.229334 38.229334s19.114667 38.229333 38.229334 38.229333h162.133333c19.114667 0 38.229333-19.114667 38.229333-38.229333s-19.114667-38.229333-38.229333-38.229334z" fill="#FFFFFF" p-id="2380"></path><path d="M368.981333 464.213333m-47.786666 0a47.786667 47.786667 0 1 0 95.573333 0 47.786667 47.786667 0 1 0-95.573333 0Z" fill="#FFFFFF" p-id="2381"></path><path d="M512 225.962667m-47.786667 0a47.786667 47.786667 0 1 0 95.573334 0 47.786667 47.786667 0 1 0-95.573334 0Z" fill="#FFFFFF" p-id="2382"></path><path d="M368.981333 702.805333c26.282667 0 47.786667-21.504 47.786667-47.786666s-21.504-47.786667-47.786667-47.786667-47.786667 21.504-47.786666 47.786667 21.504 47.786667 47.786666 47.786666z" fill="#FFFFFF" p-id="2383"></path></svg>