<?xml version="1.0" standalone="no"?><!DOCTYPE svg PUBLIC "-//W3C//DTD SVG 1.1//EN" "http://www.w3.org/Graphics/SVG/1.1/DTD/svg11.dtd"><svg t="1650640879265" class="icon" viewBox="0 0 1024 1024" version="1.1" xmlns="http://www.w3.org/2000/svg" p-id="2538" xmlns:xlink="http://www.w3.org/1999/xlink" width="200" height="200"><defs><style type="text/css">@font-face { font-family: feedback-iconfont; src: url("//at.alicdn.com/t/font_1031158_u69w8yhxdu.woff2?t=1630033759944") format("woff2"), url("//at.alicdn.com/t/font_1031158_u69w8yhxdu.woff?t=1630033759944") format("woff"), url("//at.alicdn.com/t/font_1031158_u69w8yhxdu.ttf?t=1630033759944") format("truetype"); }
</style></defs><path d="M796.672 209.92v604.16c0 36.864-30.037333 66.56-66.56 66.56H293.888c-36.864 0-66.56-30.037333-66.56-66.56v-604.16c0-36.864 30.037333-66.56 66.56-66.56h436.224c36.864 0 66.56 29.696 66.56 66.56z" fill="#F33B3D" opacity=".7" p-id="2539"></path><path d="M796.672 209.92V368.64c-71.68 37.888-172.714667 61.098667-284.672 61.098667S299.008 406.186667 227.328 368.64V209.92c0-36.864 30.037333-66.56 66.56-66.56h436.224c36.864 0 66.56 29.696 66.56 66.56z" fill="#F33B3D" opacity=".7" p-id="2540"></path><path d="M512 419.498667m-102.741333 0a102.741333 102.741333 0 1 0 205.482666 0 102.741333 102.741333 0 1 0-205.482666 0Z" fill="#FFFFFF" p-id="2541"></path><path d="M550.912 431.786667c3.072 0 5.802667 1.365333 7.850667 3.072s3.072 4.778667 3.072 7.850666c0 6.144-5.12 10.922667-10.922667 10.922667h-27.648v22.869333c0 6.144-5.12 10.922667-10.922667 10.922667h-1.706666c-6.144 0-10.922667-5.12-10.922667-10.922667V453.973333h-26.965333c-3.072 0-5.802667-1.365333-7.850667-3.072-2.048-2.048-3.072-4.778667-3.072-7.850666 0-6.144 5.12-10.922667 10.922667-10.922667h26.965333v-12.629333h-26.965333c-3.072 0-5.802667-1.365333-7.850667-3.072-2.048-2.048-3.072-4.778667-3.072-7.850667 0-6.144 5.12-10.922667 10.922667-10.922667h23.210666l-26.282666-26.282666c-4.437333-4.437333-4.437333-11.264 0-15.701334l1.024-1.024c4.437333-4.437333 11.264-4.437333 15.701333 0l25.258667 25.258667 25.258666-25.258667c4.437333-4.437333 11.264-4.437333 15.701334 0l1.024 1.024c4.437333 4.437333 4.437333 11.264 0 15.701334l-26.282667 26.282666h23.893333c6.144 0 10.922667 5.12 10.922667 10.922667 0 6.144-5.12 10.922667-10.922667 10.922667h-27.648v12.629333h27.306667z" fill="#F33B3D" opacity=".7" p-id="2542"></path></svg>