<?xml version="1.0" standalone="no"?><!DOCTYPE svg PUBLIC "-//W3C//DTD SVG 1.1//EN" "http://www.w3.org/Graphics/SVG/1.1/DTD/svg11.dtd"><svg t="1650640692279" class="icon" viewBox="0 0 1024 1024" version="1.1" xmlns="http://www.w3.org/2000/svg" p-id="2063" xmlns:xlink="http://www.w3.org/1999/xlink" width="200" height="200"><defs><style type="text/css">@font-face { font-family: feedback-iconfont; src: url("//at.alicdn.com/t/font_1031158_u69w8yhxdu.woff2?t=1630033759944") format("woff2"), url("//at.alicdn.com/t/font_1031158_u69w8yhxdu.woff?t=1630033759944") format("woff"), url("//at.alicdn.com/t/font_1031158_u69w8yhxdu.ttf?t=1630033759944") format("truetype"); }
</style></defs><path d="M798.72 318.464l-38.229333-157.696c-8.192-33.109333-24.917333-33.109333-41.301334-8.192l-29.354666 58.368c-96.938667-59.733333-217.088-66.56-320.512-18.773333-169.984 78.848-244.053333 280.576-165.546667 450.901333l26.624 196.608c4.778667 18.432 11.946667 29.354667 20.48 29.354667 6.485333 0 13.994667-6.485333 21.162667-21.162667l46.08-69.290667c112.298667 78.165333 260.096 81.237333 375.808 8.192 158.037333-100.352 205.141333-309.930667 104.789333-468.309333z" fill="#FCA235" opacity=".6" p-id="2064"></path><path d="M599.722667 530.090667c6.826667 0 12.970667 2.730667 17.749333 7.168 4.437333 4.437333 7.168 10.581333 7.168 17.408 0 13.653333-11.264 24.917333-24.917333 24.917333h-62.122667v51.541333c0 13.653333-11.264 24.917333-24.917333 24.917334h-3.413334c-13.653333 0-24.917333-11.264-24.917333-24.917334v-51.541333h-60.416c-6.826667 0-12.970667-2.730667-17.408-7.168-4.437333-4.437333-7.168-10.581333-7.168-17.408 0-13.653333 11.264-24.917333 24.917333-24.917333H484.693333V501.76h-60.416c-6.826667 0-12.970667-2.730667-17.408-7.168-4.437333-4.437333-7.168-10.581333-7.168-17.408 0-13.653333 11.264-24.917333 24.917334-24.917333h51.882666L416.768 392.533333c-9.898667-9.557333-9.898667-25.6 0-35.157333l2.389333-2.389333c9.557333-9.557333 25.6-9.557333 35.157334 0l56.661333 56.661333 56.661333-56.661333c9.557333-9.557333 25.258667-9.557333 35.157334 0l2.389333 2.389333c9.557333 9.898667 9.557333 25.6 0 35.157333L546.133333 451.925333h53.589334c13.653333 0 24.917333 11.264 24.917333 24.917334s-11.264 24.917333-24.917333 24.917333h-62.122667v28.330667h62.122667z" fill="#FFFFFF" p-id="2065"></path></svg>